<svg xmlns="http://www.w3.org/2000/svg" xmlns:xlink="http://www.w3.org/1999/xlink" version="1.1" x="0px" y="0px" viewBox="0 0 32 40" style="enable-background:new 0 0 32 32;" xml:space="preserve"><path d="M12.8484097,19.0576172l-2.2548828-0.0380859c-0.3046875,0.0087891-0.6367188,0.2148438-0.7324219,0.5371094  c-0.0947266,0.3232422,0.0371094,0.6708984,0.3222656,0.8496094l1.1269531,0.703125  c0.1220703,0.0751953,0.2597656,0.1132812,0.3974609,0.1132812c0.1318359,0,0.2636719-0.0341797,0.3808594-0.1035156  l1.1279297-0.6650391c0.2890625-0.1708984,0.4296875-0.5126953,0.3447266-0.8378906  C13.4753628,19.2919922,13.1843472,19.0634766,12.8484097,19.0576172z"/><path d="M28.4812222,1.9448242c-0.9433594-0.175293-2.1865234,0.3007812-2.5800781,2.2172852  c-0.0498047,0.2387695-0.0917969,0.4990234-0.1367188,0.7734375c-0.0351562,0.2109375-0.0703125,0.4311523-0.1132812,0.6572266  c-0.0791016,0.4204102-0.4980469,1.2763672-0.8037109,1.9008789c-0.1845703,0.3779297-0.3466797,0.7114258-0.4326172,0.9316406  c-0.4437256,1.1343384-0.5502319,2.3758545-0.6175537,3.3404541c-1.2907715-0.9157104-2.9421387-1.4928589-4.8707275-1.6929932  c-1.1123047-3.4584961-3.3076172-4.4204102-3.4052734-4.4614258c-0.2871094-0.1225586-0.6269531-0.0507812-0.8408203,0.1806641  c-0.0722656,0.078125-1.6328125,1.7763672-2.2636719,3.7797852l-2.1982422,0.0830078  c-0.8027344-1.574707-2.7705083-3.3291016-3.0156255-3.5444336C6.9294639,5.871582,6.5241904,5.862793,6.2409873,6.0874023  c-0.0966797,0.0766602-2.3232419,1.8862305-2.4072263,5.284668c-2.2744141,4.1293945-2.4892578,8.0693359-0.6025391,11.1103516  c0.9866331,1.5899658,2.4791257,2.8147583,4.3886719,3.6536255v3.2037964c0,0.4140625,0.3359375,0.75,0.7500005,0.75  c0.4140625,0,0.75-0.3359375,0.75-0.75v-2.6533813c0.7406006,0.2252808,1.5390015,0.3916016,2.375,0.5178833v2.135498  c0,0.4140625,0.3359375,0.75,0.75,0.75s0.75-0.3359375,0.75-0.75v-1.9563599  c0.5838623,0.0443115,1.1808472,0.0735474,1.8017578,0.0735474c0.2645264,0,0.5403442-0.0137329,0.8115234-0.0217896v1.9046021  c0,0.4140625,0.3359375,0.75,0.75,0.75s0.75-0.3359375,0.75-0.75v-2.0087891  c0.791748-0.09198,1.552002-0.2518311,2.2783203-0.4755859v2.484375c0,0.4140625,0.3359375,0.75,0.75,0.75s0.75-0.3359375,0.75-0.75  v-3.0574341c1.5865479-0.7415161,2.9537964-1.817749,4.0019531-3.2081909  c1.5689087-2.0821533,2.1968384-4.5620117,1.7648926-6.8544312c1.0258179-1.9355469,1.0887451-2.937439,1.1384277-3.8980103  c0.0400391-0.7631836,0.078125-1.4833984,0.6640625-2.8388672c0.0898438-0.2089844,0.1894531-0.425293,0.2900391-0.6459961  c0.3603516-0.7895508,0.7685547-1.6845703,0.9316406-2.5429688l0.0800781-0.4306641  c0.0566406-0.3041992,0.1083984-0.5927734,0.1708984-0.8569336c0.2060547-0.8798828,0.109375-1.6860352-0.2714844-2.2700195  C29.3786831,2.3100586,28.9724331,2.0366211,28.4812222,1.9448242z M23.6902065,22.1708984  c-1.6962891,2.2509766-4.3662109,3.5820312-7.5175781,3.7490234c-5.6455078,0.3056641-9.7890625-1.2021484-11.6669922-4.2275391  c-1.6103513-2.5976562-1.3525388-6.0610352,0.7285156-9.7529297c0.0634766-0.1123047,0.0966797-0.2392578,0.0966797-0.3681641  c0-1.9248047,0.8496094-3.222168,1.3955078-3.8579102c0.8066406,0.777832,2.0058599,2.065918,2.2939458,2.9448242  c0.1044922,0.3168945,0.3681641,0.5351562,0.7412109,0.5151367l3.265625-0.1235352  c0.34375-0.0131836,0.6337891-0.2578125,0.7050781-0.5942383c0.2695312-1.2705078,1.1435547-2.5239258,1.6582031-3.1777344  c0.6025391,0.4526367,1.6474609,1.5136719,2.2382812,3.6948242c0.0830078,0.3085938,0.3535156,0.5307617,0.6738281,0.5522461  c2.4052734,0.1616211,4.3193359,0.9418945,5.5341797,2.2563477c0.1953125,0.2104492,0.3730469,0.4365234,0.5302734,0.6713867  c0.3632812,0.5454102,0.625,1.1547852,0.7763672,1.8095703C25.5818081,18.1728516,25.0388393,20.3818359,23.6902065,22.1708984z   M28.4675503,4.6640625c-0.0673828,0.2871094-0.1240234,0.5991211-0.1845703,0.9282227l-0.078125,0.4204102  c-0.1298828,0.6816406-0.4824219,1.4541016-0.8242188,2.2011719c-0.1044922,0.2299805-0.2070312,0.4555664-0.3017578,0.6738281  c-0.6923828,1.6025391-0.7412109,2.5336914-0.7851562,3.3554688c-0.0308228,0.5970459-0.0653687,1.1463013-0.3626709,1.960144  c-0.1043701-0.1950684-0.1930542-0.3986816-0.31604-0.5831909c-0.1289673-0.1931763-0.284729-0.3692017-0.4338989-0.5497437  c0.0406494-0.2845459,0.0704956-0.5999756,0.0969849-0.9888306c0.0634766-0.9399414,0.1425781-2.1088867,0.5332031-3.109375  c0.0761719-0.1933594,0.2207031-0.4863281,0.3837891-0.8188477c0.3808594-0.7792969,0.8134766-1.6630859,0.9306641-2.2832031  c0.0449219-0.2387695,0.0820312-0.4707031,0.1191406-0.6928711c0.0410156-0.2519531,0.0791016-0.4902344,0.125-0.7109375  c0.0556641-0.2719727,0.3056641-1.144043,0.8359375-1.046875c0.0595703,0.0112305,0.1289062,0.0361328,0.1953125,0.1367188  C28.517355,3.7338867,28.59548,4.1186523,28.4675503,4.6640625z"/><path d="M15.2771206,15.3334961h-1.1689453c-0.4140625,0-0.75,0.3359375-0.75,0.75s0.3359375,0.75,0.75,0.75h1.1689453  c0.4140625,0,0.75-0.3359375,0.75-0.75S15.6911831,15.3334961,15.2771206,15.3334961z"/><path d="M10.2898159,16.0834961c0-0.4140625-0.3359375-0.75-0.75-0.75H8.369894c-0.414063,0-0.7500005,0.3359375-0.7500005,0.75  s0.3359375,0.75,0.7500005,0.75h1.1699219C9.9538784,16.8334961,10.2898159,16.4975586,10.2898159,16.0834961z"/><text x="0" y="47" fill="#000000" font-size="5px" font-weight="bold" font-family="'Helvetica Neue', Helvetica, Arial-Unicode, Arial, Sans-serif">Created by Valerie Lamm</text><text x="0" y="52" fill="#000000" font-size="5px" font-weight="bold" font-family="'Helvetica Neue', Helvetica, Arial-Unicode, Arial, Sans-serif">from the Noun Project</text></svg>